<svg version="1.1" xmlns="http://www.w3.org/2000/svg" xmlns:xlink="http://www.w3.org/1999/xlink" width="142" height="119"><defs><linearGradient x1="268.06896" y1="221.42102" x2="264.52861" y2="182.39203" gradientUnits="userSpaceOnUse" id="color-1"><stop offset="0" stop-color="#ffffff"/><stop offset="1" stop-color="#f0afab"/></linearGradient><linearGradient x1="202.9584" y1="221.77106" x2="205.25317" y2="210.03254" gradientUnits="userSpaceOnUse" id="color-2"><stop offset="0" stop-color="#ffffff"/><stop offset="1" stop-color="#f0afab"/></linearGradient></defs><g transform="translate(-169,-120)"><g data-paper-data="{&quot;isPaintingLayer&quot;:true}" fill-rule="nonzero" stroke-width="1" stroke-linecap="butt" stroke-linejoin="miter" stroke-miterlimit="10" stroke-dasharray="" stroke-dashoffset="0" style="mix-blend-mode: normal"><path d="M169,239v-119h142v119z" id="canvas_background" fill="none" stroke="none"/><g data-paper-data="{&quot;origPos&quot;:null}" id="svg_1"><g id="svg_2" fill="#eb9090" stroke="#b63c4c"><path d="M305.18805,142.21c-0.475,2.114 -2.154,6.561 -5.18,7.313c-0.249,0.062 -0.432,0.235 -0.579,0.475c-0.743,1.228 -0.37,4.397 -0.841,5.742c-1.372,4.585 -7.508,5.458 -10.651,3.068c-2.14,-1.703 -3.335,-5.801 -3.206,-8.877c0.011,-0.272 0.029,-0.539 0.062,-0.79l-0.185,0.834c-0.048,0.019 -0.096,0.037 -0.143,0.056c0.178,-3.565 0.928,-5.689 3.335,-8.297c1.82,-2.055 3.655,-4.02 5.847,-5.276c6.739,-3.861 8.409,-7.933 8.743,-8.798c2.541,5.378 3.536,10.44 2.798,14.55z" id="svg_3"/><path d="M284.43605,152.389c0.007,-0.205 0.018,-0.404 0.03,-0.599c0.047,-0.016 0.095,-0.031 0.143,-0.046z" id="svg_4"/></g><g id="svg_5" stroke="none"><g id="svg_6" fill="#eb9090"><path d="M273.43105,202.617c-0.001,0.081 -0.005,0.159 -0.009,0.24c0,0.001 0.001,0.003 0.001,0.004z" id="svg_7"/></g><g id="svg_8" fill="#eb9090"><path d="M270.20905,197.145c2.383,1.544 2.317,3.489 3.213,5.712c-0.345,9.819 -1.093,18.999 -1.886,28.744c-0.38,-0.064 -0.779,-0.099 -1.212,-0.093c-0.974,0.018 -2.213,0.19 -3.291,0.63c-3.637,-5.698 -5.531,-12.562 -6.635,-19.004c-1.031,-5.397 0.974,-21.167 9.811,-15.989z" id="svg_9"/></g><g id="svg_10"><g id="svg_11"><path d="M267.23905,231.527c-2.957,-4.761 -5.034,-10.811 -6.348,-18.477c-0.701,-3.665 0.078,-11.412 2.847,-14.76c0.919,-1.111 1.994,-1.675 3.196,-1.675c0.917,0 1.933,0.323 3.021,0.961c1.604,1.038 1.97,2.25 2.435,3.783c0.153,0.509 0.313,1.034 0.529,1.584c-0.34,9.593 -1.066,18.59 -1.839,28.093c-0.22,-0.02 -0.439,-0.03 -0.663,-0.03l-0.1,0.001c-1.064,0.02 -2.161,0.206 -3.078,0.52z" id="svg_12" fill="url(#color-1)"/><path d="M266.93605,197.116c-1.061,0 -1.981,0.489 -2.813,1.493c-2.678,3.239 -3.424,10.774 -2.743,14.336c1.275,7.443 3.266,13.331 6.08,17.985c1.147,-0.337 2.234,-0.412 2.845,-0.423l0.104,-0.001c0.071,0 0.142,0.001 0.212,0.003c0.755,-9.284 1.459,-18.101 1.794,-27.48c-0.204,-0.532 -0.356,-1.036 -0.504,-1.525c-0.451,-1.491 -0.777,-2.569 -2.246,-3.52c-0.972,-0.568 -1.903,-0.868 -2.729,-0.868M266.93505,196.116c0.969,0 2.056,0.315 3.274,1.029c2.382,1.544 2.317,3.489 3.213,5.712c-0.345,9.819 -1.094,19 -1.886,28.744c-0.354,-0.059 -0.726,-0.094 -1.126,-0.094c-0.029,0 -0.057,0.001 -0.086,0.001c-0.974,0.018 -2.213,0.19 -3.291,0.63c-3.637,-5.698 -5.531,-12.563 -6.635,-19.004c-0.89,-4.653 0.479,-17.017 6.537,-17.018z" id="svg_13" fill="#a52828"/></g></g><g id="svg_14" fill="#b95d5b"><path d="M271.53605,231.601c-0.044,0.551 -0.089,1.095 -0.134,1.649c-1.201,-0.528 -2.183,-0.318 -3.19,0.622c-0.414,-0.564 -0.803,-1.145 -1.179,-1.734c1.078,-0.44 2.317,-0.612 3.291,-0.63c0.433,-0.006 0.832,0.029 1.212,0.093z" id="svg_15"/></g></g><g id="svg_16" stroke="none"><g id="svg_17" fill="#eb9090"><path d="M206.98705,193.261c5.824,0.689 7.302,7.318 6.656,11.926c-0.537,3.68 -3.915,19.394 -4.842,25.182c-0.494,-0.078 -0.989,-0.122 -1.463,-0.138c-0.644,-0.023 -1.631,-0.017 -2.575,0.14c-1.381,-4.041 -2.638,-8.596 -3.861,-16.039c-0.746,-4.535 -1.418,-5.373 -1.609,-9.884c-0.329,-4.64 1.618,-11.64 7.694,-11.187z" id="svg_18"/></g><g id="svg_19"><g id="svg_20"><path d="M205.10205,229.818c-1.13,-3.353 -2.44,-7.855 -3.708,-15.566c-0.276,-1.681 -0.542,-2.857 -0.777,-3.896c-0.395,-1.743 -0.706,-3.12 -0.825,-5.929c-0.202,-2.862 0.509,-6.719 2.553,-8.912c1.097,-1.178 2.473,-1.774 4.088,-1.774c0.168,0 0.34,0.006 0.517,0.02c1.765,0.209 3.221,1.029 4.306,2.438c1.962,2.545 2.246,6.396 1.892,8.921c-0.256,1.753 -1.177,6.333 -2.151,11.183c-1.029,5.119 -2.092,10.404 -2.61,13.507c-0.343,-0.04 -0.688,-0.065 -1.033,-0.076c-0.168,-0.006 -0.361,-0.01 -0.571,-0.01c-0.602,-0.002 -1.165,0.03 -1.681,0.094z" id="svg_21" fill="url(#color-2)"/><path d="M206.43405,194.24c-1.472,0.001 -2.725,0.544 -3.723,1.617c-1.941,2.083 -2.615,5.781 -2.421,8.522c0.118,2.791 0.41,4.081 0.814,5.866c0.237,1.046 0.505,2.23 0.784,3.926c1.214,7.386 2.467,11.814 3.561,15.108c0.421,-0.037 0.867,-0.056 1.334,-0.056c0.216,0 0.415,0.004 0.59,0.01c0.199,0.006 0.399,0.017 0.598,0.033c0.544,-3.158 1.556,-8.19 2.537,-13.072c0.973,-4.839 1.892,-9.409 2.146,-11.151c0.339,-2.423 0.074,-6.118 -1.793,-8.54c-1.001,-1.298 -2.344,-2.054 -3.991,-2.249c-0.12,-0.008 -0.28,-0.014 -0.436,-0.014v0M206.43305,193.24c0.181,0 0.365,0.007 0.554,0.022c5.825,0.689 7.302,7.318 6.656,11.926c-0.537,3.68 -3.915,19.394 -4.842,25.182c-0.493,-0.078 -0.989,-0.123 -1.463,-0.138c-0.165,-0.006 -0.352,-0.01 -0.555,-0.01c-0.591,0 -1.318,0.033 -2.021,0.15c-1.381,-4.041 -2.637,-8.596 -3.861,-16.039c-0.746,-4.535 -1.418,-5.373 -1.609,-9.884c-0.318,-4.497 1.5,-11.209 7.141,-11.209z" id="svg_22" fill="#9e3232"/></g></g><g id="svg_23" fill="#b95d5b"><path d="M208.80105,230.369c-0.118,0.738 -0.199,1.322 -0.226,1.691c-0.957,-0.521 -2.182,-0.319 -3.173,0.135c-0.216,-0.601 -0.43,-1.207 -0.64,-1.824c0.944,-0.157 1.931,-0.163 2.575,-0.14c0.474,0.016 0.97,0.06 1.464,0.138z" id="svg_24"/></g></g><g id="svg_25" stroke="none"><path d="M251.03905,235.629c-0.408,-0.329 -0.799,-0.488 -1.194,-0.488c-0.359,0 -0.738,0.138 -1.127,0.409l-0.632,0.44l-0.145,-0.757c-0.105,-0.549 -0.215,-1.096 -0.332,-1.646c-0.469,-2.221 -1.028,-4.507 -1.568,-6.718c-0.518,-2.117 -1.052,-4.303 -1.519,-6.472c-3.246,0.343 -6.594,0.518 -9.958,0.518c-12.133,0 -24.211,-2.239 -34.095,-6.313c-0.733,4.035 -2.282,12.449 -3.171,16.383c-0.189,0.838 -0.336,1.419 -0.447,1.777l-0.181,0.583l-0.536,-0.293l-0.15,-0.089c-0.243,-0.149 -0.611,-0.374 -1.244,-0.425c-0.083,-0.006 -0.164,-0.009 -0.242,-0.009c-0.519,0 -0.904,0.133 -1.049,0.183l-0.079,0.027l-0.151,0.021h-0.466c0,0 -0.11,-1.535 -0.156,-2.128c-0.568,-7.337 -1.308,-12.236 -2.143,-14.197l-0.036,-0.021c-3.258,-1.897 -11.118,-8.204 -13.724,-25.731c-0.096,-0.646 -0.166,-1.286 -0.208,-1.901c-3.11,-13.25 -0.675,-29.095 6.362,-41.436c-1.17,-0.433 -2.267,-1.059 -3.136,-1.794c-1.203,-1.017 -2.133,-2.118 -2.768,-3.273c-0.785,-0.385 -1.46,-0.869 -2.011,-1.44c-1.748,-1.813 -3.169,-6.236 -2.336,-8.815c0.139,-0.431 0.5,-0.699 0.942,-0.699c0.486,0 0.915,0.326 1.043,0.793c0.095,0.346 0.164,0.701 0.231,1.056c0.138,0.723 0.269,1.406 0.636,1.982c0.215,0.335 0.485,0.628 0.857,0.92c0.679,-2.35 2.241,-4.238 4.283,-5.131c0.63,-0.275 1.316,-0.415 2.039,-0.415c2.964,0 5.818,2.32 6.233,5.066c0.22,1.46 0.001,2.834 -0.576,4.001c4.761,-5.541 10.502,-9.54 17.121,-11.916c7.69,-2.744 15.783,-4.022 25.47,-4.022c4.139,0 8.692,0.231 14.331,0.729c8.584,0.706 24.362,2.914 33.549,9.772c7.992,5.99 12.065,11.944 15.028,21.971c1.749,5.918 1.518,13.302 1.507,13.613c0.14,1.054 0.224,2.212 0.246,3.362c0.662,2.983 1.889,3.802 6.239,4.076c1.658,0.104 3.076,0.935 4.102,2.4c1.875,2.681 2.313,7.262 1.092,11.399c-1.602,5.428 -5.679,7.384 -9.053,8.481c-1.816,0.591 -6.599,1.964 -11.765,1.964v0c-0.674,0 -1.337,-0.023 -1.975,-0.071c-4.646,5.35 -10.266,9.746 -16.263,12.721c-3.052,1.5 -6.457,2.785 -10.128,3.821l-0.411,1.059c-1.795,4.611 -3.829,9.837 -4.813,14.87l-0.011,0.056l-0.023,0.051c-0.229,0.519 -0.473,1.031 -0.731,1.535l-0.28,0.546zM184.27405,142.863c0.338,0.203 0.694,0.387 1.059,0.548c0.411,-0.588 0.831,-1.162 1.259,-1.723c-0.658,0.52 -1.438,0.922 -2.318,1.175zM182.79905,136.065c-0.557,0 -1.164,1.167 -1.375,2.111c0.127,-0.006 0.254,-0.019 0.379,-0.038c0.644,-0.1 1.346,-0.208 1.579,-0.644c0.154,-0.288 0.163,-0.686 0.021,-0.991c-0.075,-0.161 -0.225,-0.367 -0.515,-0.429z" id="svg_26" fill="#f0c7c6"/><path d="M230.87605,124.158c-8.519,0 -16.874,0.986 -25.302,3.998c-8.544,3.067 -15.209,8.807 -20.062,15.876c-0.092,-0.038 -0.186,-0.076 -0.276,-0.114c-0.741,-0.318 -1.517,-0.756 -2.208,-1.301c0.258,-0.04 0.513,-0.084 0.76,-0.142c3.242,-0.752 5.066,-3.56 4.577,-6.801c-0.393,-2.607 -3.117,-4.641 -5.738,-4.641c-0.63,0 -1.255,0.117 -1.839,0.373c-2.224,0.973 -3.695,3.152 -4.172,5.501c-0.612,-0.389 -1.178,-0.835 -1.59,-1.479c-0.611,-0.956 -0.636,-2.111 -0.928,-3.174c-0.074,-0.267 -0.323,-0.426 -0.562,-0.426c-0.197,0 -0.387,0.108 -0.466,0.353c-0.762,2.36 0.547,6.579 2.22,8.314c0.573,0.594 1.262,1.055 2.015,1.406c0.656,1.248 1.63,2.343 2.728,3.272c0.977,0.826 2.227,1.491 3.551,1.899c-7.474,12.758 -9.592,28.909 -6.601,41.679c0.042,0.599 0.109,1.22 0.204,1.861c3.079,20.715 13.586,25.323 13.662,25.487c1.165,2.537 1.871,9.684 2.244,14.498c0.045,0.593 0.087,1.156 0.123,1.665v0c0.039,0 0.54,-0.23 1.277,-0.23c0.092,0 0.186,0.003 0.284,0.011c0.891,0.07 1.355,0.442 1.594,0.573c0.113,-0.364 0.263,-0.969 0.437,-1.739c0.895,-3.957 2.456,-12.432 3.278,-16.974c10.074,4.262 22.352,6.513 34.474,6.513c3.483,0 6.953,-0.186 10.355,-0.563c0.967,4.579 2.232,9.142 3.181,13.632c0.117,0.553 0.229,1.104 0.334,1.655c0.477,-0.333 0.948,-0.499 1.413,-0.499c0.51,0 1.012,0.199 1.508,0.598c0.254,-0.494 0.494,-0.998 0.719,-1.508c1.085,-5.546 3.389,-11.209 5.34,-16.247c3.646,-1.015 7.105,-2.293 10.281,-3.855c5.956,-2.954 11.641,-7.409 16.273,-12.791c0.726,0.062 1.458,0.09 2.188,0.09c4.527,0 8.979,-1.084 11.61,-1.94c3.614,-1.176 7.256,-3.162 8.727,-8.147c1.651,-5.591 0.225,-12.846 -4.745,-13.16c-4.432,-0.279 -5.965,-1.165 -6.708,-4.565c-0.021,-1.128 -0.102,-2.259 -0.246,-3.39c0,0 0.261,-7.545 -1.486,-13.454c-2.969,-10.045 -7.009,-15.837 -14.848,-21.711c-8.552,-6.387 -23.088,-8.837 -33.294,-9.676c-4.836,-0.427 -9.586,-0.727 -14.286,-0.727M181.24005,138.681c-0.13,0 -0.26,-0.005 -0.39,-0.017c0.05,-0.956 0.815,-3.099 1.949,-3.099c0.063,0 0.128,0.007 0.194,0.021c0.95,0.203 1.241,1.376 0.83,2.144c-0.365,0.682 -1.271,0.797 -1.942,0.902c-0.211,0.034 -0.425,0.049 -0.641,0.049M230.87605,123.158c4.154,0 8.721,0.233 14.369,0.731c8.642,0.711 24.526,2.938 33.812,9.872c8.089,6.062 12.21,12.086 15.207,22.228c1.694,5.733 1.554,12.807 1.529,13.69c0.136,1.092 0.217,2.207 0.242,3.318c0.586,2.608 1.449,3.414 5.773,3.687c1.816,0.114 3.365,1.018 4.48,2.613c1.957,2.798 2.424,7.551 1.161,11.827c-1.668,5.652 -5.887,7.68 -9.377,8.815c-1.838,0.598 -6.679,1.989 -11.919,1.989c-0.599,0 -1.189,-0.018 -1.762,-0.055c-4.658,5.314 -10.269,9.683 -16.258,12.654c-3.009,1.48 -6.361,2.752 -9.971,3.785l-0.322,0.829c-1.787,4.591 -3.812,9.794 -4.788,14.783l-0.022,0.11l-0.045,0.102c-0.236,0.535 -0.486,1.06 -0.743,1.56l-0.56,1.092l-0.956,-0.769c-0.316,-0.254 -0.604,-0.377 -0.881,-0.377c-0.255,0 -0.538,0.107 -0.842,0.319l-1.264,0.881l-0.29,-1.513c-0.104,-0.545 -0.214,-1.089 -0.33,-1.636c-0.468,-2.215 -1.026,-4.499 -1.566,-6.708c-0.483,-1.977 -0.981,-4.013 -1.425,-6.042c-3.125,0.315 -6.338,0.474 -9.567,0.474c-11.963,0 -23.877,-2.167 -33.711,-6.117c-0.769,4.222 -2.216,12.037 -3.066,15.798c-0.193,0.85 -0.342,1.444 -0.458,1.815l-0.363,1.165l-1.071,-0.584c-0.049,-0.028 -0.107,-0.062 -0.172,-0.102c-0.227,-0.139 -0.508,-0.312 -1.024,-0.352c-0.07,-0.005 -0.138,-0.008 -0.203,-0.008c-0.432,0 -0.749,0.109 -0.884,0.155c-0.093,0.031 -0.22,0.075 -0.394,0.075h-0.932l-0.065,-0.93c-0.035,-0.507 -0.077,-1.067 -0.122,-1.658c-0.683,-8.816 -1.469,-12.43 -2.043,-13.891c-3.385,-2.011 -11.247,-8.477 -13.855,-26.025c-0.093,-0.627 -0.162,-1.251 -0.206,-1.859c-3.08,-13.25 -0.728,-28.949 6.138,-41.297c-1.02,-0.434 -1.954,-0.999 -2.743,-1.667c-1.202,-1.017 -2.145,-2.118 -2.806,-3.277c-0.777,-0.399 -1.452,-0.893 -2.01,-1.471c-1.853,-1.922 -3.36,-6.506 -2.452,-9.317c0.206,-0.635 0.762,-1.045 1.418,-1.045c0.71,0 1.338,0.477 1.526,1.161c0.102,0.371 0.172,0.738 0.24,1.093c0.129,0.675 0.25,1.313 0.566,1.807c0.064,0.1 0.134,0.196 0.212,0.289c0.817,-2.136 2.357,-3.835 4.307,-4.688c0.693,-0.303 1.446,-0.457 2.239,-0.457c3.197,0 6.277,2.515 6.727,5.492c0.11,0.726 0.119,1.432 0.035,2.105c4.512,-4.76 9.82,-8.252 15.85,-10.417c7.745,-2.765 15.891,-4.052 25.637,-4.052zM182.14105,137.577c0.342,-0.063 0.715,-0.159 0.8,-0.319c0.081,-0.151 0.085,-0.379 0.009,-0.543c-0.059,-0.128 -0.131,-0.143 -0.129,-0.152c-0.187,0.061 -0.468,0.499 -0.68,1.014z" id="svg_27" fill="#c30d23"/></g><path d="M253.72105,214.87c0,0 -3.333,1.667 3.436,-1.103c6.769,-2.77 12.698,-7.676 19.951,-13.037c7.253,-5.361 2.284,-8.763 8.143,-7.254c5.859,1.509 9.637,-2.605 12.637,-4.339c3,-1.734 -3.667,-5.6 -6.667,-7.965c-3,-2.365 -4.333,-5.968 -4,-18.301c0.333,-12.333 -8.567,-28.309 -8.567,-28.309c7.839,5.874 11.88,11.666 14.848,21.711c1.746,5.909 1.486,13.454 1.486,13.454c0.143,1.131 0.224,2.262 0.246,3.39c0.743,3.399 2.276,4.285 6.708,4.565c4.97,0.314 6.396,7.57 4.745,13.16c-1.471,4.986 -5.113,6.972 -8.727,8.147c-3.055,0.994 -8.566,2.296 -13.798,1.85c-4.632,5.382 -10.317,9.836 -16.273,12.791c-3.176,1.562 -6.635,2.84 -10.281,3.855c-1.952,5.038 -4.255,10.701 -5.34,16.247c-0.226,0.51 -0.465,1.014 -0.719,1.508c-0.948,-0.763 -1.921,-0.797 -2.921,-0.1c-0.105,-0.551 -0.217,-1.102 -0.334,-1.655z" id="svg_28" fill="#e8b9b9" stroke="none"/><g id="svg_29" stroke="none"><g id="svg_30"><g id="svg_31"><path d="M288.95705,200.472c0.253,-0.424 0.423,-0.854 0.519,-1.316c0.132,-0.708 0.153,-1.483 0.175,-2.232c0.014,-0.477 0.027,-0.951 0.067,-1.416c0.314,-4.25 1,-9.16 3.696,-13.324c1.384,-2.147 3.938,-4.624 6.958,-5.133l0.067,-0.012l0.068,0.008c0.387,0.041 0.797,0.077 1.239,0.104c1.658,0.104 3.077,0.935 4.102,2.4c1.875,2.68 2.313,7.262 1.092,11.4c-1.601,5.427 -5.678,7.383 -9.052,8.48c-1.548,0.503 -4.705,1.405 -8.45,1.793l-0.992,0.103z" id="svg_32" fill="#f3c0bc"/><path d="M300.45505,177.543c-2.709,0.456 -5.185,2.682 -6.62,4.912c-2.509,3.873 -3.277,8.477 -3.619,13.094c-0.103,1.215 -0.025,2.498 -0.25,3.708c-0.115,0.551 -0.317,1.032 -0.579,1.471c3.319,-0.344 6.356,-1.125 8.347,-1.772c3.613,-1.175 7.256,-3.161 8.727,-8.146c1.651,-5.592 0.226,-12.847 -4.745,-13.161c-0.451,-0.028 -0.869,-0.064 -1.261,-0.106M300.42505,176.534l0.138,0.014c0.378,0.04 0.781,0.075 1.216,0.102c1.816,0.115 3.365,1.018 4.48,2.613c1.957,2.798 2.424,7.552 1.162,11.829c-1.668,5.652 -5.887,7.679 -9.377,8.814c-1.566,0.509 -4.761,1.422 -8.553,1.816l-1.983,0.206l1.021,-1.713c0.223,-0.375 0.373,-0.755 0.454,-1.142c0.127,-0.68 0.147,-1.402 0.169,-2.167c0.013,-0.471 0.027,-0.959 0.067,-1.431c0.319,-4.318 1.018,-9.306 3.775,-13.562c1.442,-2.238 4.115,-4.821 7.295,-5.356l0.136,-0.023z" id="svg_33" fill="#c30d23"/></g></g></g><g id="svg_34" fill="#f3c0bc" stroke="none"><path d="M265.30205,155.673c-0.001,-0.003 -0.002,-0.007 -0.002,-0.009c0.048,-0.074 0.091,-0.15 0.131,-0.23z" id="svg_35"/></g><path d="M265.43205,164.646c-0.023,0.032 -0.064,0.073 -0.089,0.109c-1.535,2.09 -9.404,6.281 -13.887,5.122c-3.244,-0.84 -4.342,-3.29 -6.732,-3.811c-2.851,0.121 -6.115,1.614 -9.118,-0.24c-2.354,-1.615 -4.847,-5.571 -2.999,-8.354c-0.141,-0.108 -0.286,-0.21 -0.432,-0.311c-2.942,-2.03 -6.777,-2.637 -8.293,-7.072c-1.17,-4.202 -0.355,-8.773 -1.297,-13.186c3.379,3.62 6.812,5.709 11.376,6.743c8.69,2.051 17.315,3.881 24.119,9.811c3.194,2.517 6.74,5.708 7.352,11.189z" id="svg_36" fill="#e2a6a5" stroke="none"/><path d="M265.43205,161.161c-0.023,0.041 -0.064,0.094 -0.089,0.14c-1.539,2.679 -9.427,8.051 -13.921,6.566c-3.252,-1.076 -4.353,-4.217 -6.749,-4.885c-2.858,0.156 -6.129,2.07 -9.14,-0.307c-2.361,-2.071 -4.859,-7.141 -3.007,-10.709c-0.142,-0.138 -0.286,-0.269 -0.433,-0.398c-2.95,-2.603 -6.794,-3.381 -8.314,-9.066c-1.173,-5.386 -0.356,-11.246 -1.3,-16.903c3.387,4.641 6.829,7.319 11.404,8.644c8.713,2.63 17.358,4.976 24.179,12.577c3.202,3.225 6.756,7.316 7.37,14.341z" id="svg_37" fill="#f3c0bc" stroke="#b63c4c"/><path d="M296.41805,184.97c0.446,0.015 0.802,1.49 0.043,3.488c-0.297,0.782 -1.113,1.633 -1.842,1.567c-0.191,-0.018 -0.442,-0.319 -0.445,-0.5c-0.012,-1.263 0.754,-4.606 2.244,-4.555z" id="svg_38" fill="#eb9090" stroke="none"/><path d="M304.03305,183.202c0.053,-0.188 1.386,-0.156 2.112,2.346c0.178,0.613 0.142,1.525 -0.511,1.935c-0.618,0.387 -1.102,-0.444 -1.327,-0.889c-0.419,-0.825 -0.659,-2.052 -0.274,-3.392z" id="svg_39" fill="#eb9090" stroke="none"/><path d="M183.02905,142.614c-1.458,-0.042 -4.348,-0.257 -5.723,-0.715" id="svg_40" fill="#f0afab" stroke="#c30d23"/><path d="M180.93205,138.622c-1.223,-0.327 -3.257,-1.002 -4.315,-1.719" id="svg_41" fill="#f0afab" stroke="#c30d23"/><g id="svg_42" stroke="none"><path d="M279.17105,163.437c0.053,2.969 -1.814,5.462 -4.373,5.58c-2.555,0.121 -4.51,-2.196 -4.562,-5.165c-0.053,-2.968 1.878,-5.468 4.369,-5.582c2.495,-0.117 4.514,2.197 4.566,5.167z" id="svg_43" fill="#ffffff"/><path d="M278.76205,163.417c0.047,2.642 -1.614,4.862 -3.892,4.967c-2.274,0.108 -4.014,-1.955 -4.061,-4.597c-0.047,-2.641 1.671,-4.867 3.889,-4.968c2.22,-0.106 4.018,1.953 4.064,4.598z" id="svg_44" fill="#231815"/><path d="M292.63005,161.653c0.679,2.427 -0.496,5.092 -2.625,5.65c-2.244,0.584 -4.5,-1.048 -5.212,-3.604c-0.712,-2.557 0.442,-5.078 2.628,-5.651c2.186,-0.569 4.494,1.052 5.209,3.605z" id="svg_45" fill="#ffffff"/><path d="M277.78005,160.272c0.185,0.858 -0.31,1.733 -1.097,1.954c-0.792,0.221 -1.583,-0.298 -1.768,-1.154c-0.183,-0.859 0.305,-1.733 1.098,-1.952c0.791,-0.221 1.583,0.295 1.767,1.152z" id="svg_46" fill="#ffffff"/><path d="M292.22105,161.76c0.608,2.174 -0.444,4.56 -2.351,5.06c-2.01,0.523 -4.031,-0.939 -4.668,-3.228c-0.638,-2.29 0.396,-4.548 2.353,-5.061c1.959,-0.509 4.025,0.942 4.666,3.229z" id="svg_47" fill="#231815"/><path d="M290.87305,159.395c0.374,0.767 0.146,1.677 -0.508,2.029c-0.655,0.353 -1.487,0.02 -1.858,-0.748c-0.374,-0.771 -0.146,-1.677 0.508,-2.031c0.655,-0.356 1.488,-0.017 1.858,0.75z" id="svg_48" fill="#ffffff"/></g></g></g></g></svg>