<svg version="1.1" xmlns="http://www.w3.org/2000/svg" xmlns:xlink="http://www.w3.org/1999/xlink" width="142" height="119"><defs><linearGradient x1="252.44491" y1="198.36484" x2="250.87523" y2="181.06058" gradientUnits="userSpaceOnUse" id="color-1"><stop offset="0" stop-color="#ffffff"/><stop offset="1" stop-color="#f0afab"/></linearGradient><linearGradient x1="223.57688" y1="198.52004" x2="224.59431" y2="193.31554" gradientUnits="userSpaceOnUse" id="color-2"><stop offset="0" stop-color="#ffffff"/><stop offset="1" stop-color="#f0afab"/></linearGradient></defs><g transform="translate(-169,-120)"><g data-paper-data="{&quot;isPaintingLayer&quot;:true}" fill-rule="nonzero" stroke-linecap="butt" stroke-linejoin="miter" stroke-miterlimit="10" stroke-dasharray="" stroke-dashoffset="0" style="mix-blend-mode: normal"><path d="M169,239v-119h142v119z" id="canvas_background" fill="none" stroke="none" stroke-width="1"/><g data-paper-data="{&quot;origPos&quot;:null}" id="svg_1" stroke-width="1"><g id="svg_2" fill="#eb9090" stroke="#b63c4c"><path d="M268.90238,163.2451c-0.2106,0.93728 -0.95502,2.90895 -2.29665,3.24236c-0.1104,0.02749 -0.19154,0.10419 -0.25671,0.2106c-0.32942,0.54446 -0.16405,1.9495 -0.37287,2.54583c-0.6083,2.03285 -3.32882,2.41991 -4.72233,1.36026c-0.94881,-0.75506 -1.47864,-2.57199 -1.42144,-3.93579c0.00488,-0.1206 0.01286,-0.23898 0.02749,-0.35026l-0.08202,0.36977c-0.02128,0.00842 -0.04256,0.0164 -0.0634,0.02483c0.07892,-1.58061 0.41145,-2.52233 1.47864,-3.67864c0.80693,-0.91112 1.62052,-1.78234 2.59238,-2.33922c2.98787,-1.71185 3.72829,-3.51725 3.87638,-3.90076c1.1266,2.38444 1.56775,4.62878 1.24055,6.45102z" id="svg_3"/><path d="M259.70157,167.75816c0.0031,-0.09089 0.00798,-0.17912 0.0133,-0.26558c0.02084,-0.00709 0.04212,-0.01374 0.0634,-0.02039z" id="svg_4"/></g><g id="svg_5" stroke="none"><g id="svg_6" fill="#eb9090"><path d="M254.82229,190.02772c-0.00044,0.03591 -0.00222,0.0705 -0.00399,0.10641c0,0.00044 0.00044,0.00133 0.00044,0.00177z" id="svg_7"/></g><g id="svg_8" fill="#eb9090"><path d="M253.39376,187.6016c1.05655,0.68456 1.02729,1.54692 1.42455,2.53253c-0.15296,4.35344 -0.4846,8.42358 -0.83619,12.74421c-0.16848,-0.02838 -0.34538,-0.04389 -0.53736,-0.04123c-0.43184,0.00798 -0.98118,0.08424 -1.45913,0.27932c-1.61253,-2.52632 -2.45228,-5.56961 -2.94176,-8.42579c-0.45711,-2.39286 0.43184,-9.3848 4.3499,-7.08903z" id="svg_9"/></g><g id="svg_10"><g id="svg_11"><path d="M252.07695,202.84552c-1.31104,-2.11088 -2.23192,-4.79327 -2.81451,-8.19214c-0.3108,-1.62495 0.03458,-5.05973 1.26227,-6.54413c0.40746,-0.49258 0.88408,-0.74264 1.41701,-0.74264c0.40657,0 0.85703,0.14321 1.33942,0.42608c0.71116,0.46022 0.87344,0.99758 1.0796,1.67727c0.06784,0.22568 0.13877,0.45844 0.23454,0.7023c-0.15075,4.25324 -0.47263,8.24224 -0.81536,12.45558c-0.09754,-0.00887 -0.19464,-0.0133 -0.29395,-0.0133l-0.04434,0.00044c-0.47175,0.00887 -0.95812,0.09133 -1.36469,0.23055z" id="svg_12" fill="url(#color-1)"/><path d="M251.94261,187.58874c-0.47041,0 -0.87831,0.21681 -1.2472,0.66195c-1.18734,1.43607 -1.5181,4.77686 -1.21616,6.35614c0.5653,3.3 1.44804,5.91056 2.69569,7.974c0.50854,-0.14942 0.99049,-0.18267 1.26139,-0.18755l0.04611,-0.00044c0.03148,0 0.06296,0.00044 0.09399,0.00133c0.33474,-4.11624 0.64688,-8.02543 0.7954,-12.18379c-0.09045,-0.23587 -0.15784,-0.45933 -0.22346,-0.67614c-0.19996,-0.66106 -0.3445,-1.13902 -0.99581,-1.56066c-0.43096,-0.25183 -0.84373,-0.38484 -1.20996,-0.38484M251.94217,187.14537c0.42962,0 0.91157,0.13966 1.45159,0.45623c1.05611,0.68456 1.02729,1.54692 1.42455,2.53253c-0.15296,4.35344 -0.48505,8.42402 -0.83619,12.74421c-0.15695,-0.02616 -0.32189,-0.04168 -0.49923,-0.04168c-0.01286,0 -0.02527,0.00044 -0.03813,0.00044c-0.43184,0.00798 -0.98118,0.08424 -1.45913,0.27932c-1.61253,-2.52632 -2.45228,-5.57005 -2.94176,-8.42579c-0.3946,-2.063 0.21237,-7.54482 2.89831,-7.54526z" id="svg_13" fill="#a52828"/></g></g><g id="svg_14" fill="#b95d5b"><path d="M253.98211,202.87833c-0.01951,0.2443 -0.03946,0.48549 -0.05941,0.73112c-0.53249,-0.2341 -0.96788,-0.14099 -1.41435,0.27578c-0.18355,-0.25006 -0.35603,-0.50766 -0.52273,-0.7688c0.47795,-0.19508 1.02729,-0.27134 1.45913,-0.27932c0.19198,-0.00266 0.36888,0.01286 0.53736,0.04123z" id="svg_15"/></g></g><g id="svg_16" stroke="none"><g id="svg_17" fill="#eb9090"><path d="M225.36306,185.87955c2.58218,0.30548 3.23748,3.24458 2.95107,5.28762c-0.23809,1.6316 -1.73579,8.59871 -2.14679,11.16493c-0.21902,-0.03458 -0.43849,-0.05409 -0.64865,-0.06118c-0.28553,-0.0102 -0.72314,-0.00754 -1.14168,0.06207c-0.61229,-1.79166 -1.16961,-3.8112 -1.71185,-7.1112c-0.33075,-2.01068 -0.6287,-2.38222 -0.71338,-4.38226c-0.14587,-2.05723 0.71737,-5.16082 3.41128,-4.95997z" id="svg_18"/></g><g id="svg_19"><g id="svg_20"><path d="M224.52731,202.08781c-0.50101,-1.48662 -1.08182,-3.48267 -1.64401,-6.90149c-0.12237,-0.7453 -0.24031,-1.26671 -0.3445,-1.72737c-0.17513,-0.77279 -0.31302,-1.38331 -0.36578,-2.62874c-0.08956,-1.26892 0.22568,-2.979 1.13192,-3.95131c0.48638,-0.52229 1.09645,-0.78654 1.81249,-0.78654c0.07449,0 0.15075,0.00266 0.22922,0.00887c0.78255,0.09266 1.42809,0.45623 1.90915,1.08093c0.86989,1.12838 0.99581,2.83579 0.83885,3.9553c-0.1135,0.77723 -0.52185,2.80786 -0.95369,4.9582c-0.45623,2.26961 -0.92753,4.61282 -1.15719,5.98859c-0.15208,-0.01773 -0.30504,-0.02882 -0.458,-0.0337c-0.07449,-0.00266 -0.16006,-0.00443 -0.25316,-0.00443c-0.26691,-0.00089 -0.51653,0.0133 -0.7453,0.04168z" id="svg_21" fill="url(#color-2)"/><path d="M225.11787,186.31361c-0.65264,0.00044 -1.20818,0.24119 -1.65066,0.71693c-0.86058,0.92354 -1.15941,2.56312 -1.0734,3.77839c0.05232,1.23744 0.18178,1.80939 0.3609,2.6008c0.10508,0.46376 0.2239,0.98871 0.3476,1.74067c0.53825,3.27473 1.09379,5.23797 1.57884,6.69842c0.18666,-0.0164 0.3844,-0.02483 0.59145,-0.02483c0.09577,0 0.184,0.00177 0.26159,0.00443c0.08823,0.00266 0.1769,0.00754 0.26513,0.01463c0.24119,-1.40016 0.68988,-3.6312 1.12483,-5.79572c0.4314,-2.14546 0.83885,-4.17166 0.95147,-4.94401c0.1503,-1.07428 0.03281,-2.71253 -0.79496,-3.78637c-0.44381,-0.57549 -1.03926,-0.91068 -1.76949,-0.99714c-0.0532,-0.00355 -0.12414,-0.00621 -0.19331,-0.00621v0M225.11743,185.87024c0.08025,0 0.16183,0.0031 0.24563,0.00975c2.58263,0.30548 3.23748,3.24458 2.95107,5.28762c-0.23809,1.6316 -1.73579,8.59871 -2.14679,11.16493c-0.21858,-0.03458 -0.43849,-0.05453 -0.64865,-0.06118c-0.07316,-0.00266 -0.15607,-0.00443 -0.24607,-0.00443c-0.26203,0 -0.58436,0.01463 -0.89605,0.06651c-0.61229,-1.79166 -1.16917,-3.8112 -1.71185,-7.1112c-0.33075,-2.01068 -0.6287,-2.38222 -0.71338,-4.38226c-0.14099,-1.99383 0.66505,-4.96973 3.1661,-4.96973z" id="svg_22" fill="#9e3232"/></g></g><g id="svg_23" fill="#b95d5b"><path d="M226.16733,202.3321c-0.05232,0.32721 -0.08823,0.58613 -0.1002,0.74974c-0.4243,-0.231 -0.96743,-0.14143 -1.40681,0.05985c-0.09577,-0.26647 -0.19065,-0.53515 -0.28376,-0.80871c0.41854,-0.06961 0.85615,-0.07227 1.14168,-0.06207c0.21016,0.00709 0.43007,0.0266 0.64909,0.06118z" id="svg_24"/></g></g><g id="svg_25" stroke="none"><path d="M244.89437,204.66423c-0.18089,-0.14587 -0.35425,-0.21636 -0.52938,-0.21636c-0.15917,0 -0.32721,0.06118 -0.49968,0.18134l-0.28021,0.19508l-0.06429,-0.33563c-0.04655,-0.24341 -0.09532,-0.48593 -0.1472,-0.72979c-0.20794,-0.98472 -0.45578,-1.99827 -0.6952,-2.97856c-0.22967,-0.93861 -0.46642,-1.90782 -0.67348,-2.86949c-1.43918,0.15208 -2.92358,0.22967 -4.41507,0.22967c-5.3794,0 -10.73442,-0.9927 -15.11668,-2.79899c-0.32499,1.789 -1.01177,5.51951 -1.40592,7.26372c-0.0838,0.37154 -0.14897,0.62914 -0.19819,0.78787l-0.08025,0.25848l-0.23765,-0.12991l-0.06651,-0.03946c-0.10774,-0.06606 -0.2709,-0.16582 -0.55155,-0.18843c-0.0368,-0.00266 -0.07271,-0.00399 -0.1073,-0.00399c-0.23011,0 -0.40081,0.05897 -0.46509,0.08114l-0.03503,0.01197l-0.06695,0.00931h-0.20661c0,0 -0.04877,-0.68057 -0.06917,-0.94349c-0.25183,-3.253 -0.57993,-5.42507 -0.95014,-6.29452l-0.01596,-0.00931c-1.4445,-0.84107 -4.92938,-3.6374 -6.0848,-11.40834c-0.04256,-0.28642 -0.0736,-0.57017 -0.09222,-0.84285c-1.37888,-5.87464 -0.29927,-12.89983 2.82072,-18.37145c-0.51874,-0.19198 -1.00512,-0.46953 -1.39041,-0.7954c-0.53337,-0.45091 -0.94571,-0.93906 -1.22725,-1.45115c-0.34804,-0.1707 -0.64732,-0.38529 -0.89162,-0.63845c-0.77501,-0.80383 -1.40504,-2.76485 -1.03571,-3.9083c0.06163,-0.19109 0.22168,-0.30992 0.41765,-0.30992c0.21548,0 0.40568,0.14454 0.46243,0.35159c0.04212,0.15341 0.07271,0.3108 0.10242,0.4682c0.06118,0.32056 0.11927,0.62338 0.28198,0.87876c0.09532,0.14853 0.21503,0.27844 0.37997,0.4079c0.30105,-1.04192 0.99359,-1.879 1.89895,-2.27493c0.27932,-0.12193 0.58347,-0.184 0.90403,-0.184c1.31415,0 2.57952,1.02862 2.76352,2.24611c0.09754,0.64732 0.00044,1.25651 -0.25538,1.77392c2.11088,-2.45671 4.65627,-4.22974 7.59093,-5.28319c3.40951,-1.21661 6.9977,-1.78323 11.29262,-1.78323c1.83511,0 3.85377,0.10242 6.35393,0.32322c3.80588,0.31302 10.80137,1.29198 14.8746,4.33261c3.54341,2.65578 5.34925,5.2956 6.66296,9.74127c0.77545,2.62386 0.67303,5.8977 0.66816,6.03559c0.06207,0.46731 0.09931,0.98073 0.10907,1.49061c0.29351,1.32257 0.83752,1.68569 2.76618,1.80717c0.73511,0.04611 1.3638,0.41455 1.8187,1.06409c0.83132,1.18867 1.02551,3.21975 0.48416,5.05397c-0.71028,2.40661 -2.51789,3.27384 -4.01382,3.76022c-0.80516,0.26203 -2.92579,0.87078 -5.21624,0.87078v0c-0.29883,0 -0.59278,-0.0102 -0.87565,-0.03148c-2.05989,2.37203 -4.55163,4.32108 -7.21052,5.6401c-1.35316,0.66505 -2.86284,1.23478 -4.49045,1.69411l-0.18222,0.46953c-0.79585,2.04438 -1.69766,4.36142 -2.13394,6.5929l-0.00488,0.02483l-0.0102,0.02261c-0.10153,0.23011 -0.20971,0.45711 -0.3241,0.68057l-0.12414,0.24208zM215.29281,163.53462c0.14986,0.09 0.3077,0.17158 0.46953,0.24297c0.18222,-0.2607 0.36844,-0.5152 0.5582,-0.76393c-0.29174,0.23055 -0.63757,0.40879 -1.02773,0.52096zM214.63884,160.5206c-0.24696,0 -0.51608,0.51741 -0.60963,0.93595c0.05631,-0.00266 0.11262,-0.00842 0.16804,-0.01685c0.28553,-0.04434 0.59678,-0.09222 0.70008,-0.28553c0.06828,-0.12769 0.07227,-0.30415 0.00931,-0.43938c-0.03325,-0.07138 -0.09976,-0.16272 -0.22834,-0.19021z" id="svg_26" fill="#f0c7c6"/><path d="M235.95471,155.2414c-3.77706,0 -7.48142,0.43716 -11.21813,1.77259c-3.78815,1.35981 -6.74321,3.90475 -8.89488,7.03893c-0.04079,-0.01685 -0.08247,-0.0337 -0.12237,-0.05054c-0.32854,-0.14099 -0.67259,-0.33519 -0.97896,-0.57682c0.11439,-0.01773 0.22745,-0.03724 0.33696,-0.06296c1.4374,-0.33341 2.24611,-1.5784 2.0293,-3.01536c-0.17424,-1.15586 -1.38198,-2.05768 -2.54405,-2.05768c-0.27932,0 -0.55643,0.05187 -0.81536,0.16538c-0.98605,0.4314 -1.63825,1.3975 -1.84974,2.43898c-0.27134,-0.17247 -0.52229,-0.37021 -0.70496,-0.65574c-0.2709,-0.42386 -0.28198,-0.93595 -0.41145,-1.40725c-0.03281,-0.11838 -0.14321,-0.18888 -0.24917,-0.18888c-0.08734,0 -0.17158,0.04788 -0.20661,0.15651c-0.33785,1.04635 0.24252,2.91693 0.98428,3.68617c0.25405,0.26336 0.55953,0.46775 0.89339,0.62338c0.29085,0.55333 0.72269,1.03881 1.20951,1.4507c0.43317,0.36622 0.98738,0.66106 1.5744,0.84196c-3.31374,5.65651 -4.2528,12.81737 -2.92668,18.47919c0.01862,0.26558 0.04833,0.54091 0.09045,0.82511c1.36513,9.1844 6.02362,11.22744 6.05731,11.30016c0.51653,1.12483 0.82954,4.29359 0.99492,6.42797c0.01995,0.26292 0.03857,0.51254 0.05453,0.73821v0c0.01729,0 0.23942,-0.10197 0.56618,-0.10197c0.04079,0 0.08247,0.00133 0.12592,0.00488c0.39504,0.03104 0.60077,0.19597 0.70673,0.25405c0.0501,-0.16139 0.11661,-0.42962 0.19375,-0.77102c0.39682,-1.75441 1.08892,-5.51197 1.45336,-7.52575c4.4665,1.88964 9.91019,2.88766 15.28472,2.88766c1.54426,0 3.08275,-0.08247 4.59109,-0.24962c0.42874,2.03019 0.9896,4.05328 1.41036,6.04401c0.05187,0.24518 0.10153,0.48948 0.14809,0.73378c0.21149,-0.14764 0.42031,-0.22124 0.62648,-0.22124c0.22612,0 0.44869,0.08823 0.6686,0.26513c0.11262,-0.21902 0.21902,-0.44248 0.31878,-0.6686c0.48106,-2.45893 1.50258,-4.96973 2.36759,-7.20342c1.61652,-0.45002 3.15014,-1.01665 4.55828,-1.70919c2.64071,-1.30971 5.16126,-3.28492 7.21495,-5.67114c0.32189,0.02749 0.64643,0.0399 0.97009,0.0399c2.00713,0 3.98101,-0.48061 5.14752,-0.86014c1.60234,-0.5214 3.21709,-1.40193 3.86928,-3.61213c0.732,-2.47888 0.09976,-5.69552 -2.10379,-5.83474c-1.96501,-0.1237 -2.6447,-0.51653 -2.97412,-2.02398c-0.00931,-0.50012 -0.04522,-1.00157 -0.10907,-1.50302c0,0 0.11572,-3.34522 -0.65885,-5.96509c-1.31636,-4.45365 -3.10758,-7.02164 -6.58315,-9.62599c-3.7917,-2.8318 -10.23651,-3.91806 -14.76154,-4.29004c-2.14413,-0.18932 -4.25014,-0.32233 -6.33398,-0.32233M213.94763,161.68045c-0.05764,0 -0.11528,-0.00222 -0.17291,-0.00754c0.02217,-0.42386 0.36135,-1.374 0.86413,-1.374c0.02793,0 0.05675,0.0031 0.08601,0.00931c0.4212,0.09 0.55022,0.61008 0.368,0.95058c-0.16183,0.30238 -0.56352,0.35337 -0.86102,0.39992c-0.09355,0.01507 -0.18843,0.02173 -0.2842,0.02173M235.95471,154.79803c1.84176,0 3.86662,0.10331 6.37077,0.3241c3.8316,0.31524 10.87408,1.30262 14.99121,4.37694c3.58642,2.68771 5.41354,5.35856 6.74232,9.85521c0.75107,2.54184 0.689,5.67823 0.67791,6.06973c0.0603,0.48416 0.09621,0.97852 0.1073,1.4711c0.25981,1.15631 0.64244,1.51366 2.55957,1.6347c0.80516,0.05054 1.49194,0.45135 1.98629,1.15852c0.86767,1.24055 1.07473,3.34788 0.51475,5.24373c-0.73954,2.50592 -2.61012,3.40508 -4.15747,3.9083c-0.81491,0.26513 -2.96126,0.88186 -5.28452,0.88186c-0.26558,0 -0.52717,-0.00798 -0.78122,-0.02439c-2.06521,2.35606 -4.55296,4.29315 -7.2083,5.6104c-1.3341,0.65619 -2.82027,1.22015 -4.42084,1.67815l-0.14276,0.36755c-0.7923,2.03551 -1.69012,4.34236 -2.12285,6.55433l-0.00975,0.04877l-0.01995,0.04522c-0.10464,0.2372 -0.21548,0.46997 -0.32942,0.69166l-0.24829,0.48416l-0.42386,-0.34095c-0.1401,-0.11262 -0.2678,-0.16715 -0.39061,-0.16715c-0.11306,0 -0.23853,0.04744 -0.37332,0.14143l-0.56042,0.39061l-0.12858,-0.67082c-0.04611,-0.24164 -0.09488,-0.48283 -0.14631,-0.72535c-0.2075,-0.98206 -0.4549,-1.99472 -0.69432,-2.97412c-0.21415,-0.87654 -0.43495,-1.77924 -0.6318,-2.67884c-1.38553,0.13966 -2.81008,0.21016 -4.24172,0.21016c-5.30403,0 -10.58633,-0.96078 -14.94643,-2.71209c-0.34095,1.87191 -0.98251,5.33684 -1.35937,7.00435c-0.08557,0.37686 -0.15163,0.64023 -0.20306,0.80472l-0.16094,0.51653l-0.47485,-0.25893c-0.02173,-0.01241 -0.04744,-0.02749 -0.07626,-0.04522c-0.10064,-0.06163 -0.22523,-0.13833 -0.45401,-0.15607c-0.03104,-0.00222 -0.06118,-0.00355 -0.09,-0.00355c-0.19154,0 -0.33208,0.04833 -0.39194,0.06872c-0.04123,0.01374 -0.09754,0.03325 -0.17469,0.03325h-0.41322l-0.02882,-0.41233c-0.01552,-0.22479 -0.03414,-0.47308 -0.05409,-0.73511c-0.30282,-3.90874 -0.65131,-5.51108 -0.9058,-6.15884c-1.50081,-0.89162 -4.98658,-3.75844 -6.14288,-11.53869c-0.04123,-0.27799 -0.07183,-0.55466 -0.09133,-0.82422c-1.36558,-5.87464 -0.32277,-12.8351 2.7214,-18.30983c-0.45224,-0.19242 -0.86634,-0.44293 -1.21616,-0.7391c-0.53293,-0.45091 -0.95103,-0.93906 -1.24409,-1.45292c-0.3445,-0.1769 -0.64377,-0.39593 -0.89117,-0.6522c-0.82156,-0.85216 -1.48972,-2.88456 -1.08714,-4.13087c0.09133,-0.28154 0.33785,-0.46332 0.6287,-0.46332c0.31479,0 0.59323,0.21149 0.67658,0.51475c0.04522,0.16449 0.07626,0.32721 0.10641,0.4846c0.05719,0.29927 0.11084,0.58214 0.25095,0.80117c0.02838,0.04434 0.05941,0.0869 0.09399,0.12813c0.36223,-0.94704 1.04502,-1.70032 1.90959,-2.07852c0.30725,-0.13434 0.64111,-0.20262 0.9927,-0.20262c1.41745,0 2.78303,1.11507 2.98255,2.43498c0.04877,0.32189 0.05276,0.6349 0.01552,0.93329c2.00048,-2.11044 4.35389,-3.65868 7.0274,-4.61858c3.4339,-1.22592 7.04558,-1.79653 11.36666,-1.79653zM214.3471,161.19097c0.15163,-0.02793 0.31701,-0.0705 0.3547,-0.14143c0.03591,-0.06695 0.03769,-0.16804 0.00399,-0.24075c-0.02616,-0.05675 -0.05808,-0.0634 -0.05719,-0.06739c-0.08291,0.02705 -0.2075,0.22124 -0.30149,0.44958z" id="svg_27" fill="#c30d23"/></g><path d="M246.08348,195.46032c0,0 -1.47775,0.7391 1.52342,-0.48904c3.00117,-1.22813 5.6299,-3.4033 8.84566,-5.78021c3.21576,-2.3769 1.01266,-3.88525 3.61036,-3.2162c2.5977,0.66904 4.27275,-1.15498 5.60286,-1.92378c1.33011,-0.7688 -1.62584,-2.48287 -2.95594,-3.53144c-1.33011,-1.04857 -1.92112,-2.64603 -1.77348,-8.1141c0.14764,-5.46807 -3.79835,-12.55134 -3.79835,-12.55134c3.47557,2.60435 5.26723,5.17235 6.58315,9.62599c0.77412,2.61987 0.65885,5.96509 0.65885,5.96509c0.0634,0.50145 0.09931,1.0029 0.10907,1.50302c0.32942,1.50701 1.00911,1.89984 2.97412,2.02398c2.20355,0.13922 2.83579,3.35631 2.10379,5.83474c-0.6522,2.21064 -2.26695,3.09117 -3.86928,3.61213c-1.35449,0.44071 -3.7979,1.01798 -6.11761,0.82023c-2.05369,2.38621 -4.57424,4.36098 -7.21495,5.67114c-1.40814,0.69254 -2.94176,1.25917 -4.55828,1.70919c-0.86546,2.2337 -1.88654,4.7445 -2.36759,7.20342c-0.1002,0.22612 -0.20617,0.44958 -0.31878,0.6686c-0.42031,-0.33829 -0.85171,-0.35337 -1.29508,-0.04434c-0.04655,-0.2443 -0.09621,-0.48859 -0.14809,-0.73378z" id="svg_28" fill="#e8b9b9" stroke="none"/><g id="svg_29" stroke="none"><g id="svg_30"><g id="svg_31"><path d="M261.70605,189.07669c0.11217,-0.18799 0.18755,-0.37864 0.23011,-0.58347c0.05852,-0.31391 0.06784,-0.65752 0.07759,-0.9896c0.00621,-0.21149 0.01197,-0.42164 0.02971,-0.62781c0.13922,-1.88432 0.44337,-4.06126 1.63869,-5.90745c0.61362,-0.95191 1.74599,-2.05014 3.08496,-2.27582l0.02971,-0.00532l0.03015,0.00355c0.17158,0.01818 0.35337,0.03414 0.54933,0.04611c0.73511,0.04611 1.36425,0.41455 1.8187,1.06409c0.83132,1.18823 1.02551,3.21975 0.48416,5.05441c-0.70983,2.40617 -2.51745,3.2734 -4.01338,3.75977c-0.68634,0.22301 -2.08605,0.62293 -3.74647,0.79496l-0.43982,0.04567z" id="svg_32" fill="#f3c0bc"/><path d="M266.80391,178.91067c-1.20109,0.20218 -2.29887,1.18912 -2.93511,2.17783c-1.11241,1.71717 -1.45292,3.75844 -1.60455,5.80548c-0.04567,0.53869 -0.01108,1.10754 -0.11084,1.64401c-0.05099,0.2443 -0.14055,0.45756 -0.25671,0.6522c1.47154,-0.15252 2.81806,-0.49879 3.7008,-0.78565c1.60189,-0.52096 3.21709,-1.40149 3.86928,-3.61169c0.732,-2.47932 0.1002,-5.69597 -2.10379,-5.83518c-0.19996,-0.01241 -0.38529,-0.02838 -0.55909,-0.047M266.79061,178.46331l0.06118,0.00621c0.16759,0.01773 0.34627,0.03325 0.53914,0.04522c0.80516,0.05099 1.49194,0.45135 1.98629,1.15852c0.86767,1.24055 1.07473,3.34833 0.5152,5.24462c-0.73954,2.50592 -2.61012,3.40463 -4.15747,3.90786c-0.69432,0.22568 -2.11088,0.63047 -3.79214,0.80516l-0.8792,0.09133l0.45268,-0.75949c0.09887,-0.16626 0.16538,-0.33474 0.20129,-0.50633c0.05631,-0.30149 0.06518,-0.6216 0.07493,-0.96078c0.00576,-0.20883 0.01197,-0.42519 0.02971,-0.63446c0.14143,-1.91447 0.45135,-4.126 1.67372,-6.01298c0.63934,-0.99226 1.82447,-2.13748 3.23438,-2.37469l0.0603,-0.0102z" id="svg_33" fill="#c30d23"/></g></g></g><g id="svg_34" fill="#f3c0bc" stroke="none"><path d="M251.21814,169.21418c-0.00044,-0.00133 -0.00089,-0.0031 -0.00089,-0.00399c0.02128,-0.03281 0.04035,-0.06651 0.05808,-0.10197z" id="svg_35"/></g><path d="M251.27578,173.19254c-0.0102,0.01419 -0.02838,0.03237 -0.03946,0.04833c-0.68057,0.92664 -4.16945,2.7848 -6.15707,2.27094c-1.43829,-0.37243 -1.92511,-1.45869 -2.98476,-1.68968c-1.26405,0.05365 -2.7112,0.7156 -4.04264,-0.10641c-1.04369,-0.71604 -2.14901,-2.47001 -1.32966,-3.70391c-0.06252,-0.04788 -0.1268,-0.09311 -0.19154,-0.13789c-1.30439,-0.90004 -3.00471,-1.16917 -3.67686,-3.13551c-0.51874,-1.86304 -0.1574,-3.88968 -0.57505,-5.84627c1.49815,1.605 3.02023,2.5312 5.04377,2.98964c3.85288,0.90935 7.67694,1.72072 10.69363,4.3499c1.41612,1.11596 2.98831,2.53075 3.25965,4.96086z" id="svg_36" fill="#e2a6a5" stroke="none"/><path d="M251.27578,171.64739c-0.0102,0.01818 -0.02838,0.04168 -0.03946,0.06207c-0.68235,1.18779 -4.17964,3.56957 -6.17215,2.91116c-1.44184,-0.47707 -1.92999,-1.86969 -2.9923,-2.16586c-1.26715,0.06917 -2.71741,0.91777 -4.0524,-0.13611c-1.0468,-0.91822 -2.15433,-3.1661 -1.33321,-4.74804c-0.06296,-0.06118 -0.1268,-0.11927 -0.19198,-0.17646c-1.30794,-1.15409 -3.01225,-1.49903 -3.68617,-4.01959c-0.52007,-2.38799 -0.15784,-4.98613 -0.57638,-7.49427c1.50169,2.05768 3.02777,3.24502 5.05618,3.83249c3.86308,1.16606 7.69601,2.20621 10.72023,5.57626c1.41967,1.42987 2.9954,3.24369 3.26763,6.35836z" id="svg_37" fill="#f3c0bc" stroke="#b63c4c"/><path d="M265.01403,182.20358c0.19774,0.00665 0.35558,0.66062 0.01906,1.54647c-0.13168,0.34671 -0.49347,0.72402 -0.81669,0.69476c-0.08468,-0.00798 -0.19597,-0.14143 -0.1973,-0.22168c-0.00532,-0.55998 0.3343,-2.04216 0.99492,-2.01955z" id="svg_38" fill="#eb9090" stroke="none"/><path d="M268.39028,181.4197c0.0235,-0.08335 0.61451,-0.06917 0.9364,1.04014c0.07892,0.27179 0.06296,0.67614 -0.22656,0.85792c-0.274,0.17158 -0.48859,-0.19686 -0.58835,-0.39416c-0.18577,-0.36578 -0.29218,-0.90979 -0.12148,-1.50391z" id="svg_39" fill="#eb9090" stroke="none"/><path d="M214.74081,163.42422c-0.64643,-0.01862 -1.92777,-0.11395 -2.5374,-0.31701" id="svg_40" fill="#f0afab" stroke="#c30d23"/><path d="M213.81107,161.65429c-0.54224,-0.14498 -1.44405,-0.44426 -1.91314,-0.76215" id="svg_41" fill="#f0afab" stroke="#c30d23"/><g id="svg_42" stroke="none"><path d="M257.36723,172.6565c0.0235,1.31636 -0.80427,2.42168 -1.93885,2.474c-1.13281,0.05365 -1.9996,-0.97364 -2.02265,-2.29c-0.0235,-1.31592 0.83265,-2.42434 1.93708,-2.47489c1.10621,-0.05187 2.00137,0.97408 2.02442,2.29089z" id="svg_43" fill="#ffffff"/><path d="M257.1859,172.64764c0.02084,1.17138 -0.7156,2.15566 -1.72559,2.20222c-1.00822,0.04788 -1.77968,-0.86679 -1.80052,-2.03817c-0.02084,-1.17094 0.74087,-2.15788 1.72426,-2.20266c0.98428,-0.047 1.78146,0.8659 1.80185,2.03861z" id="svg_44" fill="#231815"/><path d="M263.33454,171.86553c0.30105,1.07606 -0.21991,2.25764 -1.16384,2.50504c-0.99492,0.25893 -1.99516,-0.46465 -2.31084,-1.5979c-0.31568,-1.1337 0.19597,-2.25143 1.16517,-2.50548c0.96921,-0.25228 1.9925,0.46642 2.30951,1.59835z" id="svg_45" fill="#ffffff"/><path d="M256.75051,171.25324c0.08202,0.38041 -0.13744,0.76836 -0.48638,0.86634c-0.35115,0.09798 -0.70185,-0.13212 -0.78388,-0.51165c-0.08114,-0.38085 0.13523,-0.76836 0.48682,-0.86546c0.35071,-0.09798 0.70185,0.13079 0.78343,0.51076z" id="svg_46" fill="#ffffff"/><path d="M263.1532,171.91297c0.26957,0.96389 -0.19686,2.02176 -1.04236,2.24345c-0.89117,0.23188 -1.78722,-0.41632 -2.06965,-1.4312c-0.28287,-1.01532 0.17557,-2.01644 1.04325,-2.24389c0.86856,-0.22568 1.78456,0.41765 2.06876,1.43164z" id="svg_47" fill="#231815"/><path d="M262.55554,170.8644c0.16582,0.34006 0.06473,0.74353 -0.22523,0.8996c-0.29041,0.15651 -0.65929,0.00887 -0.82378,-0.33164c-0.16582,-0.34184 -0.06473,-0.74353 0.22523,-0.90048c0.29041,-0.15784 0.65973,-0.00754 0.82378,0.33253z" id="svg_48" fill="#ffffff"/></g></g><path d="M174.31932,236.29897v-0.74535h129.31792v0.74535z" data-paper-data="{&quot;origPos&quot;:null}" fill="#ffffff" stroke="none" stroke-width="0"/></g></g></svg>